<?xml version="1.0" encoding="UTF-8" standalone="no"?>
<!-- Created with Inkscape (http://www.inkscape.org/) -->

<svg
   version="1.1"
   id="svg1129"
   xml:space="preserve"
   width="767.95825"
   height="609.01709"
   viewBox="0 0 767.95825 609.01707"
   xmlns="http://www.w3.org/2000/svg"
   xmlns:svg="http://www.w3.org/2000/svg"><defs
     id="defs1133"><clipPath
       clipPathUnits="userSpaceOnUse"
       id="clipPath1145"><path
         d="M 0,1950.957 H 2670.441 V 0 H 0 Z"
         id="path1143" /></clipPath></defs><g
     id="g1135"
     transform="matrix(1.3333333,0,0,-1.3333333,-1396.3154,1694.2261)"><g
       id="g1139"><g
         id="g1141"
         clip-path="url(#clipPath1145)"><g
           id="g1147"
           transform="translate(915.6161,724.5377)" /><g
           id="g1151"
           transform="translate(1078.3069,734.0221)" /><g
           id="g1155"
           transform="translate(1224.7487,724.5377)" /><g
           id="g1159"
           transform="translate(1463.152,702.2631)" /><g
           id="g1163"
           transform="translate(1516.5718,772.1018)" /><g
           id="g1167"
           transform="translate(1689.6536,724.5377)" /><g
           id="g1171"
           transform="translate(1409.2814,1218.4506)"><path
             d="m 0,0 c -4.71,17.644 -21.088,28.487 -40.006,26.253 1.163,5.565 4.13,10.473 8.263,14.079 4.507,3.935 10.412,6.319 16.884,6.319 7.094,0 13.52,-2.877 18.166,-7.526 4.649,-4.648 7.525,-11.07 7.525,-18.164 C 10.832,16.26 9.575,11.858 7.381,8.08 5.53,4.889 3.003,2.129 0,0 m -108.115,26.253 c -18.919,2.234 -35.298,-8.607 -40.008,-26.253 -3.004,2.129 -5.529,4.889 -7.381,8.08 -2.194,3.778 -3.451,8.18 -3.451,12.881 0,7.097 2.875,13.523 7.519,18.171 4.649,4.646 11.074,7.519 18.171,7.519 6.474,0 12.379,-2.384 16.886,-6.319 4.133,-3.606 7.101,-8.514 8.264,-14.079 m -47.242,16.811 z m 30.933,-127.288 c -2.792,-0.843 -5.185,-2.678 -6.722,-5.158 0,0 1.595,-1.842 4.789,-5.524 11.476,7.533 26.401,7.241 37.571,-0.738 -2.744,6.583 -8.461,11.464 -15.392,13.138 -6.933,1.675 -14.247,-0.058 -19.693,-4.664 0,0 -0.184,0.982 -0.553,2.946 m 60.309,-37.018 h -19.891 c 0.684,-4.966 4.933,-8.668 9.945,-8.668 5.013,0 9.259,3.702 9.946,8.668 m 4.779,25.598 c 11.169,7.979 26.095,8.271 37.57,0.738 3.193,3.682 4.789,5.524 4.789,5.524 -1.537,2.48 -3.928,4.315 -6.722,5.158 -0.369,-1.964 -0.554,-2.946 -0.554,-2.946 -5.444,4.606 -12.758,6.339 -19.691,4.664 -6.933,-1.674 -12.649,-6.555 -15.392,-13.138 M -201.707,-240.97 c -0.373,0.064 -0.793,0.067 -1.26,0.008 -2.428,-0.673 -4.418,-2.099 -5.782,-4.526 -7.046,-12.542 -5.769,-33.688 -4.3,-58.007 0.788,-13.061 1.63,-27.012 1.288,-41.157 4.945,19.009 10.352,42.66 13.172,62.886 1.621,11.638 2.379,22.077 1.68,29.709 -0.593,6.478 -2.076,10.621 -4.798,11.087 m -31.678,149.819 0.009,-0.006 z m -59.499,-173.441 -2.403,-2.929 c 1.795,-8.008 3.64,-14.876 5.272,-20.956 l 0.757,-2.828 c -0.668,8.727 -2.069,17.547 -3.626,26.713 m -1.397,7.75 0.875,1.126 c 8.496,10.987 15.423,21.688 20.539,32.181 6.261,12.845 9.802,25.358 10.177,37.68 -0.481,0.505 -0.919,0.998 -1.313,1.48 -8.647,-11.808 -15.561,-24.237 -20.737,-37.281 -4.467,-11.256 -7.647,-22.986 -9.541,-35.186 m 349.127,15.88 c -0.467,0.059 -0.887,0.056 -1.26,-0.008 -2.723,-0.466 -4.206,-4.609 -4.799,-11.087 -0.699,-7.632 0.06,-18.071 1.681,-29.709 2.82,-20.226 8.227,-43.877 13.172,-62.886 -0.342,14.145 0.5,28.096 1.288,41.157 1.468,24.319 2.746,45.465 -4.301,58.007 -1.363,2.427 -3.354,3.853 -5.781,4.526 m 30.409,149.805 0.008,0.006 z m 39.491,-132.378 c 5.115,-10.493 12.042,-21.194 20.538,-32.181 l 0.876,-1.126 c -1.894,12.2 -5.075,23.93 -9.541,35.186 -5.176,13.044 -12.09,25.473 -20.737,37.281 -0.394,-0.482 -0.832,-0.975 -1.313,-1.48 0.374,-12.323 3.916,-24.835 10.177,-37.68 m 22.42,-43.986 -2.404,2.929 c -1.557,-9.166 -2.958,-17.986 -3.626,-26.713 l 0.758,2.828 c 1.632,6.08 3.476,12.948 5.272,20.956 m -457.856,95.936 -2.675,1.04 -3.673,-18.535 z m 0.627,6.1 2.805,-1.093 c 17.334,11.141 31.797,21.012 43.383,29.615 10.878,8.074 19.221,15.025 25.029,20.851 -1.171,2.915 -1.647,6.391 -1.647,9.863 0,1.43 0.082,2.872 0.228,4.28 z m 469.2,-1.093 2.805,1.093 -69.799,63.516 c 0.147,-1.408 0.228,-2.85 0.228,-4.28 0,-3.472 -0.476,-6.948 -1.646,-9.863 5.807,-5.826 14.151,-12.777 25.028,-20.851 11.586,-8.603 26.05,-18.474 43.384,-29.615 m 6.107,-3.967 -2.675,-1.04 6.347,-17.495 z M 4.39,-280.661 c 1.944,2.799 2.793,6.848 2.55,12.147 -2.415,-1.581 -4.798,-3.025 -7.149,-4.331 -1.711,-0.95 -3.406,-1.828 -5.085,-2.632 v -10.097 c 3.961,0.41 6.934,1.727 8.921,3.947 0.17,0.318 0.398,0.603 0.675,0.841 z m -50.093,-33.024 c 0.983,7.7 0.911,16.311 0.511,24.242 -1.187,-21.143 -4.718,-36.054 -12.958,-46.426 7.645,2.53 11.083,11.51 12.447,22.184 m 20.799,-17.676 0.061,-0.322 c 1.47,-7.626 3.708,-12.445 6.714,-14.458 4.296,4.978 6.904,11.448 6.904,18.496 v 49.6 c -4.631,-1.782 -9.13,-2.982 -13.498,-3.599 -0.387,-0.054 -0.767,-0.03 -1.124,0.06 -1.336,-19.498 -1.238,-34.763 0.296,-45.791 0.195,-1.403 0.41,-2.731 0.647,-3.986 m -12.848,-3.927 c -2.769,0.308 -5.465,0.934 -8.018,1.876 -3.92,-6.153 -9.927,-9.78 -18.962,-9.003 -10.582,-8.316 -26.225,-12.105 -49.316,-13.065 1.792,-0.358 3.643,-0.547 5.537,-0.547 h 68.902 c 6.422,0 12.364,2.164 17.134,5.797 -3.386,2.863 -5.924,7.823 -7.612,14.878 -2.587,-0.238 -5.161,-0.216 -7.665,0.064 m -5.347,7.205 c 1.91,-0.648 3.923,-1.089 5.995,-1.32 1.928,-0.215 3.902,-0.25 5.885,-0.106 l -0.193,1.323 c -1.798,12.93 -1.713,31.249 0.256,54.951 -0.514,1.118 -1.009,2.244 -1.487,3.376 -2.643,-0.411 -5.291,-0.782 -7.941,-1.113 l 0.326,-4.09 c 0.869,-10.722 2.114,-26.073 0.416,-39.365 -0.633,-4.957 -1.666,-9.613 -3.257,-13.656 m -62.859,108.663 c 0.154,-5.851 -0.115,-11.697 -0.801,-17.491 10.748,-2.48 21.719,-3.721 32.699,-3.721 10.979,0 21.95,1.241 32.698,3.721 -0.686,5.794 -0.955,11.64 -0.801,17.491 -10.514,-2.423 -21.215,-3.635 -31.897,-3.635 -10.682,0 -21.384,1.212 -31.898,3.635 m -2.232,20.192 c 0.915,-4.657 1.551,-9.346 1.915,-14.041 10.56,-2.569 21.379,-3.854 32.215,-3.854 10.837,0 21.653,1.285 32.215,3.854 0.422,5.458 1.214,10.907 2.382,16.308 0.345,1.6 1.923,2.616 3.522,2.271 1.599,-0.345 2.615,-1.922 2.27,-3.522 -2.896,-13.394 -3.368,-27.082 -1.5,-40.433 l 0.033,-0.23 c 1.245,-8.77 3.5,-17.398 6.74,-25.709 0.358,-0.404 0.609,-0.91 0.701,-1.481 l 0.037,-0.363 c 0.674,-1.643 1.385,-3.272 2.137,-4.888 l 0.137,-0.295 c 0.603,-1.29 1.233,-2.569 1.885,-3.838 4.431,0.822 9.037,2.307 13.82,4.452 0.131,0.071 0.267,0.133 0.408,0.185 2.033,0.925 4.097,1.97 6.192,3.135 3.477,1.931 7.041,4.193 10.691,6.782 l 0.153,0.109 c 4.441,3.159 9.011,6.806 13.706,10.938 -0.307,17.637 -6.284,34.925 -17.929,51.858 -10.921,15.88 -26.813,31.45 -47.673,46.707 -8.373,-9.022 -17.459,-17.316 -27.157,-24.806 l -2.57,-1.956 c -10.768,-8.071 -22.258,-15.166 -34.33,-21.183 m 0.587,-43.566 c -1.223,-7.27 -3.11,-14.431 -5.645,-21.393 12.994,-1.956 26.126,-2.936 39.283,-2.936 8.635,0 17.26,0.422 25.842,1.265 l 0.346,0.034 c 1.214,0.121 2.428,0.25 3.641,0.389 l 0.122,0.013 c 3.057,0.349 6.108,0.751 9.153,1.207 -2.541,6.97 -4.431,14.142 -5.657,21.421 -11.048,-2.513 -22.301,-3.769 -33.542,-3.769 -11.241,0 -22.495,1.256 -33.543,3.769 m -15.795,-38.85 c -4.368,0.617 -8.867,1.816 -13.497,3.599 v -49.6 c 0,-7.802 3.195,-14.898 8.34,-20.043 0.748,-0.747 1.535,-1.453 2.361,-2.114 32.535,0.084 51.497,4.225 62.097,16.039 10.4,11.592 13.283,31.064 13.465,61.725 -7.772,-0.677 -15.557,-1.017 -23.333,-1.017 -13.846,0 -27.723,1.076 -41.501,3.223 -1.47,-3.484 -3.107,-6.91 -4.91,-10.265 l -0.006,-0.011 c -0.573,-1.064 -1.756,-1.71 -3.016,-1.536 m -24.513,8.798 c -2.352,1.307 -4.735,2.751 -7.149,4.332 -0.243,-5.299 0.606,-9.349 2.55,-12.147 1.951,-2.808 5.179,-4.446 9.684,-4.913 v 10.095 c -1.679,0.805 -3.374,1.682 -5.085,2.633 m 39.902,118.571 c -18.891,-14.298 -33.443,-28.871 -43.651,-43.715 -11.646,-16.933 -17.623,-34.221 -17.929,-51.858 4.694,-4.131 9.263,-7.777 13.703,-10.937 l 0.158,-0.112 c 3.649,-2.589 7.213,-4.85 10.69,-6.781 2.092,-1.163 4.154,-2.207 6.185,-3.132 0.145,-0.053 0.286,-0.117 0.419,-0.19 4.78,-2.144 9.385,-3.627 13.814,-4.449 5.938,11.543 9.844,23.92 11.64,36.589 l 0.029,0.202 c 1.87,13.356 1.398,27.048 -1.499,40.446 -0.306,1.419 0.46,2.821 1.753,3.36 11.982,5.827 23.367,12.723 34.018,20.585 -4.908,2.593 -9.665,5.434 -14.251,8.512 -5.265,3.535 -10.302,7.368 -15.079,11.48 m -53.001,-47.338 c 1.394,2.335 2.888,4.664 4.485,6.983 1.859,2.704 3.856,5.397 5.989,8.081 -0.097,0.08 -0.191,0.166 -0.279,0.259 l -83.057,87.102 c -0.425,-2.162 -0.689,-4.615 -0.689,-7.061 0,-3.33 0.489,-6.549 1.74,-8.778 16.911,-20.986 31.372,-38.583 43.365,-52.972 11.678,-14.011 21.216,-25.22 28.446,-33.614 m -11.391,-26.395 c 1.229,4.555 2.824,9.083 4.783,13.581 l -0.137,0.067 c -25.477,13.176 -46.362,22.31 -62.347,27.685 -13.65,4.589 -23.481,6.433 -29.314,5.71 0.316,-0.393 0.683,-0.802 1.104,-1.231 0.471,-0.254 0.865,-0.632 1.139,-1.09 3.623,-3.281 9.93,-7.499 18.923,-12.654 14.928,-8.557 36.88,-19.248 65.849,-32.068 m 199.724,-19.849 c 0.043,-1.105 0.066,-2.212 0.067,-3.32 0,-0.878 -0.382,-1.665 -0.99,-2.207 l 0.006,-0.006 c -4.721,-4.206 -9.337,-7.952 -13.848,-11.236 0.558,-4.875 0.421,-9.102 -0.412,-12.682 3.673,1.787 8.297,4.243 13.111,7.054 6.11,3.567 12.43,7.655 17.361,11.595 -0.007,2.556 0.083,4.945 0.284,7.135 0.379,4.139 1.173,7.641 2.457,10.342 -5.254,-1.15 -11.13,-3.589 -16.914,-6.385 -0.363,-0.175 -0.743,-0.27 -1.122,-0.29 m -7.826,33.43 c 1.958,-4.498 3.553,-9.026 4.783,-13.58 28.968,12.82 50.92,23.51 65.848,32.067 8.993,5.155 15.301,9.373 18.924,12.654 0.273,0.458 0.668,0.836 1.139,1.09 0.42,0.429 0.788,0.838 1.103,1.231 -5.832,0.723 -15.663,-1.121 -29.313,-5.71 -15.985,-5.375 -36.871,-14.509 -62.347,-27.685 z m -17.083,27.878 c 2.134,-2.683 4.132,-5.377 5.991,-8.081 1.596,-2.319 3.091,-4.647 4.485,-6.982 7.228,8.394 16.766,19.602 28.445,33.613 11.993,14.389 26.453,31.986 43.365,52.972 1.25,2.229 1.74,5.448 1.74,8.778 0,2.446 -0.264,4.899 -0.689,7.061 L 2.695,-186.29 c -0.09,-0.093 -0.183,-0.18 -0.281,-0.259 m -62.693,39.05 c -0.135,-0.175 -0.294,-0.338 -0.472,-0.483 -4.321,-3.517 -8.792,-6.817 -13.392,-9.889 -0.11,-0.086 -0.225,-0.161 -0.344,-0.229 -3.216,-2.136 -6.52,-4.176 -9.904,-6.114 3.554,-2.18 7.195,-4.213 10.911,-6.093 8.717,6.85 16.913,14.368 24.509,22.493 l -1.986,1.388 c -0.264,0.181 -0.489,0.399 -0.672,0.641 -2.832,-0.703 -5.718,-1.277 -8.65,-1.714 m -19.397,-0.849 3.955,-3.447 c 1.583,1.085 3.146,2.195 4.689,3.33 -1.005,-0.032 -2.015,-0.05 -3.029,-0.05 -1.886,0 -3.758,0.056 -5.615,0.167 m -9.201,6.653 c 0.586,0.084 1.195,-0.006 1.742,-0.279 4.261,-0.639 8.627,-0.971 13.074,-0.971 23.497,0 44.761,9.26 60.145,24.234 0.669,0.65 1.324,1.31 1.972,1.985 4.503,5.675 7.571,12.246 9.084,19.166 1.529,6.977 1.469,14.299 -0.297,21.406 -1.763,7.105 -5.135,13.596 -9.744,19.042 -4.152,4.904 -9.301,8.955 -15.177,11.839 -6.496,-8.324 -17.187,-15.813 -29.566,-21.67 -13.968,-6.608 -30.189,-11.196 -44.955,-12.579 -11.103,-1.037 -21.259,-0.279 -29.133,2.431 -3.791,1.308 -7.079,3.07 -9.733,5.304 -2.623,-9.317 -2.602,-18.988 -0.203,-28.026 2.725,-10.262 8.515,-19.707 16.982,-26.89 0.043,-0.038 0.088,-0.075 0.133,-0.113 10.349,-7.424 22.489,-12.627 35.676,-14.879 m -7.614,-4.091 c -0.184,-0.241 -0.409,-0.459 -0.673,-0.64 -2.03,-1.407 -4.016,-2.817 -5.961,-4.23 4.207,-3.561 8.585,-6.879 13.112,-9.936 3.094,1.7 6.147,3.505 9.154,5.411 l -9.233,8.046 c -2.16,0.376 -4.295,0.827 -6.399,1.349 m -58.514,-140.977 c -3.496,1.154 -11.811,5.388 -20.561,10.647 -5.242,3.151 -10.693,6.697 -15.421,10.197 -0.316,-5.154 -0.92,-10.77 -1.74,-16.659 -5.074,-36.394 -18.481,-83.873 -22.736,-96.207 l -0.141,-0.34 c -1.775,-8.058 -4.273,-15.993 -7.734,-23.675 -0.672,-1.49 -2.426,-2.153 -3.916,-1.482 -1.49,0.671 -2.154,2.425 -1.483,3.915 13.765,30.541 11.622,66.013 9.78,96.525 -1.525,25.249 -2.851,47.205 5.04,61.25 3.811,6.781 10.215,8.696 17.803,7.847 6.513,-0.727 13.898,-3.582 21.119,-7.013 0.289,2.656 0.698,5.303 1.228,7.942 -0.189,0.041 -0.378,0.102 -0.562,0.183 -29.399,13 -51.688,23.852 -66.863,32.549 -6.56,3.76 -11.853,7.191 -15.881,10.29 -1.054,-11.663 -4.648,-23.403 -10.466,-35.337 -5.136,-10.537 -12.014,-21.243 -20.407,-32.2 l 0.164,-0.96 c 3.739,-21.792 7.123,-41.531 2.975,-62.697 -1.099,-9.454 -5.709,-18.839 -16.293,-31.509 -1.048,-1.253 -2.916,-1.419 -4.17,-0.371 -1.253,1.049 -1.419,2.917 -0.371,4.171 19.622,23.489 16.6,34.747 9.903,59.69 -1.747,6.512 -3.737,13.919 -5.653,22.637 -0.081,0.379 -0.086,0.757 -0.026,1.119 1.576,16.36 5.304,31.954 11.185,46.772 5.893,14.852 13.943,28.911 24.143,42.176 0.307,0.429 0.73,0.782 1.25,1.004 6.356,2.714 18.711,1.25 36.614,-4.769 16.264,-5.468 37.413,-14.709 63.119,-28 0.36,0.718 0.73,1.435 1.109,2.152 -0.302,0.164 -0.58,0.386 -0.818,0.661 -7.195,8.344 -16.927,19.777 -29.182,34.479 -11.755,14.104 -25.645,30.993 -41.505,50.649 -5.967,-5.855 -14.251,-12.718 -24.85,-20.586 -11.825,-8.779 -26.538,-18.819 -44.134,-30.118 l -20.225,-55.74 c -2.551,-7.927 -6.656,-14.295 -12.315,-19.101 -5.665,-4.812 -12.843,-8.013 -21.529,-9.604 -1.605,-0.294 -3.147,0.769 -3.441,2.375 -0.294,1.605 0.769,3.147 2.375,3.441 7.642,1.399 13.901,4.169 18.772,8.306 4.786,4.065 8.282,9.498 10.485,16.299 l 11.871,59.915 c 0.133,0.684 0.493,1.267 0.986,1.687 l 80.24,73.017 0.138,0.119 c 0.418,0.336 0.904,0.54 1.404,0.616 l 0.16,0.02 c 0.297,0.03 0.597,0.014 0.895,-0.049 0.463,-0.096 0.906,-0.304 1.285,-0.621 16.964,-12.338 68.023,-71.266 86.629,-90.823 9.809,11.444 22.134,22.697 36.971,33.758 0.102,0.087 0.207,0.166 0.317,0.237 1.918,1.425 3.875,2.846 5.874,4.265 -8.884,2.985 -17.144,7.279 -24.535,12.646 -3.522,2.558 -6.848,5.359 -9.947,8.376 -16.411,15.974 -26.563,38.042 -26.563,62.415 0,18.078 5.584,34.888 15.163,48.882 -0.028,1.876 0.058,3.701 0.254,5.475 -4.58,2.725 -8.408,6.596 -11.089,11.215 -2.677,4.615 -4.213,9.967 -4.213,15.666 0,8.625 3.501,16.438 9.156,22.092 5.665,5.666 13.479,9.166 22.103,9.166 7.854,0 15.043,-2.911 20.54,-7.71 5.564,-4.855 9.392,-11.652 10.425,-19.332 0.893,-0.237 1.788,-0.492 2.682,-0.778 8.106,2.32 16.683,3.563 25.557,3.563 8.874,0 17.451,-1.243 25.556,-3.563 0.896,0.286 1.789,0.541 2.68,0.769 1.036,7.689 4.864,14.486 10.426,19.341 5.499,4.799 12.686,7.71 20.54,7.71 8.632,0 16.45,-3.5 22.104,-9.155 C 12.902,37.408 16.4,29.592 16.4,20.961 16.4,15.262 14.866,9.91 12.188,5.295 9.506,0.676 5.679,-3.195 1.099,-5.92 c 0.197,-1.774 0.284,-3.599 0.255,-5.474 9.58,-13.995 15.164,-30.805 15.164,-48.883 0,-24.373 -10.153,-46.441 -26.564,-62.415 -9.61,-9.353 -21.365,-16.613 -34.483,-21.021 17.633,-12.508 32.022,-25.261 43.165,-38.262 l 86.29,90.496 c 0.093,0.103 0.227,0.247 0.337,0.328 0.38,0.317 0.822,0.525 1.285,0.621 0.298,0.064 0.599,0.079 0.892,0.049 l 0.161,-0.02 c 0.503,-0.075 0.988,-0.28 1.407,-0.616 26.885,-22.641 54.155,-49.273 80.378,-73.136 0.493,-0.42 0.853,-1.003 0.986,-1.687 l 11.871,-59.915 c 2.203,-6.801 5.699,-12.234 10.485,-16.299 4.87,-4.137 11.129,-6.907 18.772,-8.306 1.605,-0.294 2.669,-1.836 2.375,-3.441 -0.294,-1.606 -1.836,-2.669 -3.441,-2.375 -8.687,1.591 -15.865,4.792 -21.529,9.604 -5.659,4.806 -9.764,11.174 -12.315,19.101 l -20.226,55.74 c -17.595,11.299 -32.308,21.339 -44.133,30.118 -10.6,7.868 -18.884,14.731 -24.851,20.586 -15.86,-19.656 -29.749,-36.545 -41.504,-50.649 -12.256,-14.702 -21.988,-26.134 -29.182,-34.479 -0.238,-0.275 -0.516,-0.496 -0.819,-0.661 0.38,-0.716 0.75,-1.434 1.111,-2.152 25.705,13.291 46.854,22.532 63.117,28 17.904,6.019 30.258,7.484 36.615,4.769 0.52,-0.222 0.943,-0.575 1.249,-1.004 10.201,-13.264 18.251,-27.324 24.143,-42.176 5.881,-14.818 9.61,-30.412 11.186,-46.772 0.06,-0.362 0.055,-0.74 -0.027,-1.119 -1.915,-8.718 -3.905,-16.125 -5.652,-22.637 -6.698,-24.943 -9.72,-36.201 9.902,-59.69 1.049,-1.254 0.883,-3.122 -0.371,-4.171 -1.253,-1.048 -3.121,-0.882 -4.169,0.371 -10.584,12.67 -15.194,22.056 -16.294,31.508 -4.148,21.167 -0.763,40.905 2.976,62.698 l 0.164,0.96 c -8.394,10.957 -15.271,21.663 -20.407,32.2 -5.818,11.933 -9.412,23.673 -10.466,35.337 -4.029,-3.1 -9.322,-6.53 -15.882,-10.29 -15.174,-8.697 -37.464,-19.548 -66.862,-32.548 -0.185,-0.081 -0.372,-0.141 -0.562,-0.183 0.531,-2.639 0.94,-5.286 1.229,-7.943 7.22,3.431 14.606,6.286 21.118,7.013 7.588,0.849 13.992,-1.066 17.802,-7.847 7.892,-14.045 6.565,-36.001 5.041,-61.25 -1.843,-30.512 -3.987,-65.984 9.78,-96.525 0.67,-1.49 0.007,-3.244 -1.483,-3.915 -1.49,-0.671 -3.244,-0.008 -3.916,1.482 -3.462,7.682 -5.96,15.617 -7.735,23.675 l -0.141,0.34 c -4.255,12.334 -17.661,59.813 -22.735,96.207 -0.821,5.897 -1.426,11.518 -1.741,16.676 -4.526,-3.314 -9.661,-6.579 -14.618,-9.472 -8.297,-4.843 -16.273,-8.74 -20.14,-10.141 -3.089,-3.523 -7.557,-5.522 -13.401,-5.997 v -36.133 c 0,-9.438 -3.861,-18.019 -10.078,-24.237 -6.218,-6.216 -14.799,-10.077 -24.237,-10.077 h -68.902 c -7.62,0 -14.68,2.516 -20.39,6.757 l -0.144,0.107 c -1.31,0.983 -2.547,2.059 -3.703,3.213 -6.219,6.219 -10.078,14.799 -10.078,24.237 v 36.133 c -5.115,0.416 -9.174,1.999 -12.179,4.749 m -35.735,28.103 c 5.142,-4.124 11.817,-8.539 18.21,-12.382 4.546,-2.733 8.907,-5.159 12.44,-6.97 -0.988,3.726 -1.184,8.188 -0.588,13.386 -4.512,3.284 -9.129,7.03 -13.848,11.236 l 0.005,0.006 c -0.607,0.542 -0.99,1.329 -0.99,2.207 0.002,1.108 0.024,2.215 0.068,3.32 -0.379,0.02 -0.76,0.115 -1.123,0.29 -5.786,2.796 -11.66,5.236 -16.914,6.385 1.283,-2.701 2.078,-6.203 2.457,-10.342 0.201,-2.19 0.29,-4.58 0.283,-7.136 m 44.508,154.668 c -8.137,12.679 -12.839,27.662 -12.839,43.715 0,22.821 9.504,43.484 24.865,58.435 15.384,14.972 36.649,24.236 60.145,24.236 23.498,0 44.762,-9.264 60.145,-24.236 15.362,-14.951 24.866,-35.614 24.866,-58.435 0,-12.237 -2.734,-23.852 -7.637,-34.301 0.884,6.509 0.55,13.208 -1.073,19.752 -1.976,7.949 -5.747,15.213 -10.9,21.302 -4.474,5.284 -10,9.688 -16.307,12.894 3.084,5.522 3.907,10.923 3.055,15.903 -0.604,3.534 -2.064,6.834 -4.16,9.792 -2.044,2.883 -4.705,5.441 -7.776,7.567 -7.761,5.377 -18.237,8.042 -28.023,6.368 -1.515,-0.258 -2.531,-1.695 -2.274,-3.21 0.256,-1.514 1.695,-2.531 3.209,-2.273 8.346,1.429 17.294,-0.853 23.935,-5.452 2.543,-1.763 4.739,-3.867 6.406,-6.219 1.616,-2.282 2.74,-4.816 3.202,-7.51 0.759,-4.437 -0.286,-9.402 -3.862,-14.565 -5.705,-8.235 -16.271,-15.781 -28.758,-21.687 -13.427,-6.353 -28.975,-10.759 -43.087,-12.08 -10.319,-0.968 -19.68,-0.289 -26.824,2.169 -4.821,1.66 -8.57,4.122 -10.814,7.418 -2.186,3.208 -2.991,7.344 -2.014,12.457 1.08,5.664 4.288,12.452 10.104,20.43 0.9,1.238 0.628,2.973 -0.608,3.873 -1.238,0.902 -2.971,0.628 -3.873,-0.609 -6.339,-8.693 -9.858,-16.23 -11.082,-22.65 -1.213,-6.352 -0.236,-11.668 2.458,-15.983 -3.933,-11.31 -4.229,-23.255 -1.286,-34.337 0.245,-0.928 0.513,-1.849 0.807,-2.764"
             style="fill:#000000;fill-opacity:1;fill-rule:evenodd;stroke:none"
             id="path1173" /></g></g></g></g></svg>
