<?xml version="1.0" encoding="UTF-8" standalone="no"?>
<!DOCTYPE svg PUBLIC "-//W3C//DTD SVG 1.1//EN" "http://www.w3.org/Graphics/SVG/1.1/DTD/svg11.dtd">
<svg width="100%" height="100%" viewBox="0 0 577 458" version="1.1" xmlns="http://www.w3.org/2000/svg" xmlns:xlink="http://www.w3.org/1999/xlink" xml:space="preserve" xmlns:serif="http://www.serif.com/" style="fill-rule:evenodd;clip-rule:evenodd;stroke-linejoin:round;stroke-miterlimit:2;">
    <g transform="matrix(1,0,0,1,-164.842,0.5)">
        <g>
            <path d="M372.38,338.98C368.88,337.83 360.57,333.59 351.82,328.33C346.58,325.18 341.13,321.63 336.4,318.13C336.08,323.28 335.48,328.9 334.66,334.79C329.59,371.18 316.18,418.66 311.92,431L311.78,431.34C310.01,439.4 307.51,447.33 304.05,455.01C303.38,456.5 301.62,457.16 300.13,456.49C298.64,455.82 297.98,454.06 298.65,452.57C312.42,422.03 310.27,386.56 308.43,356.05C306.91,330.8 305.58,308.85 313.47,294.8C317.28,288.02 323.68,286.1 331.27,286.95C337.78,287.68 345.17,290.53 352.39,293.96C352.68,291.3 353.09,288.66 353.62,286.02C353.43,285.98 353.24,285.92 353.06,285.84C323.66,272.84 301.37,261.99 286.2,253.29C279.64,249.53 274.35,246.1 270.32,243C269.27,254.66 265.67,266.4 259.85,278.34C254.71,288.88 247.84,299.58 239.44,310.54L239.6,311.5C243.34,333.29 246.72,353.03 242.58,374.2C241.48,383.65 236.87,393.04 226.29,405.71C225.24,406.96 223.37,407.13 222.12,406.08C220.87,405.03 220.7,403.16 221.75,401.91C241.37,378.42 238.35,367.16 231.65,342.22C229.9,335.71 227.91,328.3 226,319.58C225.92,319.2 225.91,318.82 225.97,318.46C227.55,302.1 231.27,286.51 237.15,271.69C243.04,256.84 251.09,242.78 261.29,229.51C261.6,229.08 262.02,228.73 262.54,228.51C268.9,225.8 281.25,227.26 299.15,233.28C315.41,238.75 336.56,247.99 362.27,261.28C362.63,260.56 363,259.84 363.38,259.13C363.08,258.97 362.8,258.74 362.56,258.47C355.37,250.13 345.63,238.69 333.38,223.99C321.62,209.89 307.73,193 291.87,173.34C285.9,179.2 277.62,186.06 267.02,193.93C255.2,202.71 240.48,212.75 222.89,224.05L202.67,279.79C200.12,287.72 196.01,294.09 190.36,298.89C184.7,303.7 177.52,306.9 168.83,308.49C167.22,308.78 165.68,307.72 165.39,306.11C165.1,304.5 166.16,302.96 167.77,302.67C175.41,301.27 181.67,298.5 186.54,294.36C191.33,290.3 194.82,284.86 197.02,278.06L208.89,218.14C209.02,217.46 209.38,216.87 209.88,216.45L290.12,143.43L290.26,143.31C290.68,142.97 291.16,142.77 291.66,142.69L291.82,142.67C292.12,142.64 292.42,142.66 292.72,142.72C293.18,142.82 293.63,143.02 294.01,143.34C310.97,155.68 362.03,214.61 380.64,234.16C390.45,222.72 402.77,211.46 417.61,200.4C417.71,200.31 417.82,200.23 417.93,200.16C419.85,198.73 421.8,197.31 423.8,195.89C414.92,192.9 406.66,188.61 399.26,183.24C395.74,180.68 392.41,177.88 389.31,174.86C372.9,158.89 362.75,136.82 362.75,112.44C362.75,94.36 368.33,77.55 377.91,63.56C377.88,61.68 377.97,59.86 378.16,58.09C373.58,55.37 369.75,51.49 367.07,46.87C364.39,42.26 362.86,36.9 362.86,31.2C362.86,22.57 366.36,14.76 372.02,9.11C377.68,3.5 385.49,0 394.12,0C401.97,0 409.16,2.91 414.66,7.71C420.22,12.57 424.05,19.36 425.08,27.04C425.97,27.28 426.87,27.53 427.76,27.82C435.87,25.5 444.44,24.26 453.32,24.26C462.19,24.26 470.77,25.5 478.88,27.82C479.78,27.53 480.67,27.28 481.56,27.05C482.6,19.36 486.42,12.56 491.99,7.71C497.49,2.91 504.68,0 512.53,0C521.16,0 528.98,3.5 534.63,9.15C540.29,14.81 543.78,22.62 543.78,31.25C543.78,36.95 542.25,42.3 539.57,46.92C536.89,51.54 533.06,55.41 528.48,58.14C528.68,59.91 528.76,61.74 528.73,63.61C538.31,77.6 543.89,94.41 543.89,112.49C543.89,136.86 533.74,158.93 517.33,174.91C507.72,184.26 495.96,191.52 482.85,195.93C500.48,208.44 514.87,221.19 526.01,234.19L612.3,143.69C612.39,143.59 612.53,143.44 612.64,143.36C613.02,143.04 613.46,142.83 613.93,142.74C614.23,142.68 614.53,142.66 614.82,142.69L614.98,142.71C615.48,142.79 615.97,142.99 616.39,143.33C643.28,165.97 670.55,192.6 696.77,216.47C697.26,216.89 697.62,217.47 697.76,218.16L709.63,278.08C711.83,284.88 715.33,290.31 720.11,294.38C724.98,298.52 731.24,301.29 738.88,302.69C740.49,302.98 741.55,304.53 741.26,306.13C740.97,307.74 739.42,308.8 737.82,308.51C729.13,306.92 721.96,303.72 716.29,298.91C710.63,294.1 706.53,287.74 703.98,279.81L683.75,224.07C666.15,212.77 651.44,202.73 639.62,193.95C629.02,186.08 620.74,179.22 614.77,173.36C598.91,193.02 585.02,209.9 573.27,224.01C561.01,238.71 551.28,250.14 544.09,258.49C543.85,258.77 543.57,258.99 543.27,259.15C543.65,259.87 544.02,260.58 544.38,261.3C570.09,248.01 591.23,238.77 607.5,233.3C625.4,227.28 637.76,225.82 644.11,228.53C644.63,228.75 645.05,229.1 645.36,229.53C655.56,242.79 663.61,256.85 669.5,271.71C675.38,286.53 679.11,302.12 680.69,318.48C680.75,318.84 680.75,319.22 680.66,319.6C678.74,328.32 676.75,335.72 675.01,342.24C668.31,367.18 665.29,378.44 684.91,401.93C685.96,403.18 685.79,405.05 684.54,406.1C683.29,407.15 681.42,406.98 680.37,405.73C669.79,393.06 665.18,383.67 664.08,374.22C659.93,353.05 663.32,333.32 667.06,311.52L667.22,310.56C658.83,299.6 651.95,288.9 646.81,278.36C640.99,266.43 637.4,254.69 636.34,243.02C632.31,246.12 627.02,249.55 620.46,253.31C605.29,262.01 583,272.86 553.6,285.86C553.42,285.94 553.23,286 553.04,286.04C553.57,288.68 553.98,291.33 554.27,293.98C561.49,290.55 568.88,287.69 575.39,286.97C582.98,286.12 589.38,288.04 593.19,294.82C601.08,308.87 599.76,330.82 598.23,356.07C596.39,386.58 594.24,422.05 608.01,452.59C608.68,454.08 608.02,455.83 606.53,456.51C605.04,457.18 603.29,456.52 602.61,455.03C599.15,447.35 596.65,439.41 594.88,431.36L594.74,431.02C590.48,418.69 577.08,371.21 572,334.81C571.18,328.91 570.57,323.29 570.26,318.13C565.73,321.44 560.6,324.71 555.64,327.6C547.34,332.44 539.37,336.34 535.5,337.74C532.41,341.26 527.94,343.26 522.1,343.74L522.1,379.87C522.1,389.31 518.24,397.89 512.02,404.11C505.8,410.33 497.22,414.19 487.78,414.19L418.88,414.19C411.26,414.19 404.2,411.67 398.49,407.43L398.35,407.32C397.04,406.34 395.8,405.26 394.65,404.11C388.43,397.89 384.57,389.31 384.57,379.87L384.57,343.74C379.44,343.31 375.38,341.73 372.38,338.98Z" style="fill:white;"/>
            <path d="M381.15,156.21C373.01,143.53 368.31,128.55 368.31,112.49C368.31,89.67 377.81,69.01 393.17,54.05C408.55,39.08 429.82,29.81 453.32,29.81C476.82,29.81 498.08,39.07 513.47,54.05C528.83,69 538.34,89.66 538.34,112.49C538.34,124.73 535.61,136.34 530.7,146.79C531.58,140.28 531.25,133.58 529.63,127.04C527.65,119.09 523.88,111.83 518.73,105.74C514.26,100.46 508.73,96.05 502.42,92.85C505.5,87.33 506.33,81.93 505.47,76.95C504.87,73.42 503.41,70.12 501.31,67.16C499.27,64.28 496.6,61.72 493.53,59.59C485.77,54.21 475.29,51.55 465.51,53.22C464,53.48 462.98,54.92 463.24,56.43C463.5,57.94 464.94,58.96 466.45,58.7C474.8,57.27 483.74,59.55 490.38,64.15C492.92,65.91 495.12,68.02 496.79,70.37C498.41,72.65 499.53,75.19 499.99,77.88C500.75,82.32 499.7,87.28 496.13,92.44C490.42,100.68 479.86,108.22 467.37,114.13C453.94,120.48 438.39,124.89 424.28,126.21C413.96,127.18 404.6,126.5 397.46,124.04C392.64,122.38 388.89,119.92 386.65,116.62C384.46,113.41 383.66,109.28 384.64,104.16C385.72,98.5 388.93,91.71 394.74,83.73C395.64,82.49 395.37,80.76 394.13,79.86C392.89,78.96 391.16,79.23 390.26,80.47C383.92,89.16 380.4,96.7 379.18,103.12C377.97,109.47 378.94,114.79 381.64,119.1C377.71,130.41 377.41,142.36 380.35,153.44C380.59,154.37 380.86,155.3 381.15,156.21Z"/>
            <path d="M336.64,310.88C341.78,315 348.46,319.42 354.85,323.26C359.4,325.99 363.76,328.42 367.29,330.23C366.3,326.5 366.11,322.04 366.7,316.84C362.19,313.56 357.57,309.81 352.85,305.6L352.86,305.59C352.25,305.05 351.87,304.26 351.87,303.38C351.87,302.27 351.89,301.17 351.94,300.06C351.56,300.04 351.18,299.94 350.82,299.77C345.03,296.97 339.16,294.53 333.91,293.38C335.19,296.08 335.99,299.58 336.37,303.72C336.56,305.93 336.65,308.32 336.64,310.88Z" style="fill:white;"/>
            <path d="M430.89,198C430.71,198.24 430.48,198.46 430.22,198.64C428.19,200.05 426.2,201.46 424.26,202.87C428.47,206.43 432.85,209.75 437.37,212.81C440.46,211.11 443.52,209.3 446.52,207.4L437.29,199.35C435.13,198.98 432.99,198.53 430.89,198Z"/>
            <path d="M438.5,193.91C439.09,193.83 439.7,193.92 440.24,194.19C444.5,194.83 448.87,195.16 453.31,195.16C476.81,195.16 498.07,185.9 513.46,170.93C514.13,170.28 514.78,169.62 515.43,168.95C519.93,163.28 523,156.7 524.51,149.78C526.04,142.8 525.98,135.48 524.21,128.37C522.45,121.27 519.07,114.77 514.47,109.33C510.32,104.43 505.17,100.37 499.29,97.49C492.79,105.81 482.1,113.3 469.72,119.16C455.75,125.77 439.53,130.36 424.76,131.74C413.66,132.78 403.5,132.02 395.63,129.31C391.84,128 388.55,126.24 385.9,124.01C383.28,133.33 383.3,143 385.7,152.04C388.42,162.3 394.21,171.75 402.68,178.93C402.72,178.97 402.77,179.01 402.81,179.04C413.18,186.46 425.32,191.66 438.5,193.91Z" style="fill:white;"/>
            <path d="M447.71,200.57L451.67,204.02C453.25,202.94 454.82,201.83 456.36,200.69C455.35,200.72 454.35,200.74 453.33,200.74C451.44,200.73 449.56,200.68 447.71,200.57Z"/>
            <path d="M467.1,199.72C466.96,199.9 466.81,200.06 466.63,200.2C462.31,203.72 457.84,207.02 453.24,210.09C453.13,210.18 453.01,210.25 452.9,210.32C449.68,212.46 446.38,214.5 443,216.43C446.55,218.61 450.19,220.64 453.91,222.52C462.63,215.67 470.82,208.15 478.42,200.03L476.43,198.64C476.17,198.46 475.94,198.24 475.76,198C472.92,198.71 470.03,199.28 467.1,199.72Z"/>
            <path d="M529.8,238.77C531.93,241.45 533.93,244.15 535.79,246.85C537.39,249.17 538.88,251.5 540.27,253.83C547.5,245.44 557.04,234.23 568.72,220.22C580.71,205.83 595.17,188.23 612.08,167.25C613.33,165.02 613.82,161.8 613.82,158.47C613.82,156.02 613.56,153.57 613.13,151.41L530.07,238.51C529.99,238.6 529.89,238.69 529.8,238.77Z" style="fill:white;"/>
            <path d="M546.88,266.65C548.84,271.15 550.43,275.68 551.66,280.23C580.63,267.41 602.58,256.72 617.51,248.16C626.5,243.01 632.81,238.79 636.43,235.51C636.7,235.05 637.1,234.67 637.57,234.42C637.99,233.99 638.36,233.58 638.67,233.19C632.84,232.47 623.01,234.31 609.36,238.9C593.37,244.27 572.49,253.41 547.01,266.58L546.88,266.65Z" style="fill:white;"/>
            <path d="M554.7,300.08C554.74,301.19 554.77,302.29 554.77,303.4C554.77,304.28 554.39,305.06 553.78,305.61L553.79,305.62C549.07,309.83 544.45,313.57 539.94,316.86C540.5,321.73 540.36,325.96 539.53,329.54C543.2,327.75 547.83,325.3 552.64,322.49C558.75,318.92 565.07,314.83 570,310.89C569.99,308.33 570.08,305.95 570.28,303.76C570.66,299.62 571.45,296.12 572.74,293.42C567.49,294.57 561.61,297.01 555.83,299.81C555.46,299.96 555.08,300.06 554.7,300.08Z" style="fill:white;"/>
            <path d="M354.98,280.23C356.21,275.67 357.8,271.15 359.76,266.65L359.62,266.58C334.14,253.4 313.26,244.27 297.27,238.9C283.62,234.31 273.79,232.47 267.96,233.19C268.28,233.58 268.64,233.99 269.06,234.42C269.53,234.67 269.93,235.05 270.2,235.51C273.82,238.79 280.13,243.01 289.12,248.16C304.06,256.72 326.01,267.41 354.98,280.23Z" style="fill:white;"/>
            <path d="M366.37,253.83C367.76,251.49 369.26,249.17 370.85,246.85C372.71,244.15 374.71,241.45 376.84,238.77C376.74,238.69 376.65,238.6 376.56,238.51L293.5,151.41C293.07,153.57 292.81,156.03 292.81,158.47C292.81,161.8 293.3,165.02 294.55,167.25C311.46,188.24 325.92,205.83 337.91,220.22C349.6,234.23 359.14,245.44 366.37,253.83Z" style="fill:white;"/>
            <path d="M419.37,206.49C400.48,220.79 385.93,235.36 375.72,250.2C364.07,267.13 358.1,284.42 357.79,302.06C362.48,306.19 367.05,309.84 371.49,313L371.65,313.11C375.3,315.7 378.86,317.96 382.34,319.89C384.43,321.05 386.49,322.1 388.53,323.02C388.68,323.07 388.82,323.14 388.95,323.21C393.73,325.35 398.34,326.84 402.76,327.66C408.7,316.12 412.6,303.74 414.4,291.07L414.43,290.87C416.3,277.51 415.83,263.82 412.93,250.42C412.62,249 413.39,247.6 414.68,247.06C426.66,241.23 438.05,234.34 448.7,226.48C443.79,223.89 439.04,221.05 434.45,217.97C429.19,214.44 424.15,210.61 419.37,206.49Z"/>
            <path d="M379.47,325.06C377.12,323.75 374.74,322.31 372.32,320.73C372.08,326.03 372.93,330.08 374.87,332.88C376.82,335.69 380.05,337.33 384.55,337.79L384.55,327.69C382.88,326.89 381.18,326.02 379.47,325.06Z"/>
            <path d="M403.98,333.86C399.61,333.24 395.11,332.04 390.48,330.26L390.48,379.86C390.48,387.66 393.68,394.76 398.82,399.9C399.57,400.65 400.35,401.35 401.18,402.01C433.71,401.93 452.68,397.79 463.28,385.97C473.68,374.38 476.56,354.91 476.75,324.25C468.98,324.93 461.19,325.27 453.42,325.27C439.57,325.27 425.7,324.19 411.92,322.05C410.45,325.53 408.81,328.96 407.01,332.32L407,332.33C406.43,333.39 405.24,334.04 403.98,333.86Z"/>
            <path d="M419.78,295.01C418.56,302.28 416.67,309.44 414.13,316.4C427.12,318.36 440.26,319.34 453.41,319.34C462.04,319.34 470.67,318.92 479.25,318.07L479.6,318.04C480.81,317.92 482.03,317.79 483.24,317.65L483.36,317.64C486.42,317.29 489.47,316.89 492.51,316.43C489.97,309.46 488.08,302.29 486.85,295.01C475.8,297.52 464.55,298.78 453.31,298.78C442.08,298.78 430.83,297.53 419.78,295.01Z"/>
            <path d="M419.19,251.45C420.11,256.11 420.74,260.8 421.11,265.49C431.67,268.06 442.49,269.34 453.33,269.34C464.17,269.34 474.98,268.05 485.55,265.49C485.97,260.03 486.76,254.58 487.93,249.18C488.27,247.58 489.85,246.56 491.45,246.91C493.05,247.25 494.06,248.83 493.72,250.43C490.82,263.82 490.35,277.51 492.22,290.86L492.25,291.09C493.49,299.86 495.75,308.49 498.99,316.8C499.35,317.2 499.6,317.71 499.69,318.28L499.73,318.64C500.4,320.28 501.12,321.91 501.87,323.53L502.01,323.82C502.61,325.11 503.24,326.39 503.9,327.66C508.33,326.84 512.94,325.35 517.72,323.21C517.85,323.14 517.99,323.08 518.13,323.03C520.16,322.1 522.23,321.06 524.32,319.9C527.8,317.97 531.36,315.71 535.01,313.12L535.16,313.01C539.6,309.85 544.17,306.2 548.87,302.07C548.56,284.43 542.59,267.15 530.94,250.21C520.02,234.33 504.13,218.76 483.27,203.5C474.9,212.52 465.81,220.82 456.11,228.31L453.54,230.27C442.75,238.34 431.26,245.43 419.19,251.45Z"/>
            <path d="M421.42,271.64C421.57,277.49 421.3,283.34 420.62,289.13C431.37,291.61 442.34,292.85 453.32,292.85C464.3,292.85 475.27,291.61 486.02,289.13C485.33,283.34 485.06,277.49 485.22,271.64C474.71,274.06 464.01,275.27 453.32,275.27C442.64,275.27 431.94,274.06 421.42,271.64Z"/>
            <path d="M484.28,380.3C486.19,380.95 488.2,381.39 490.27,381.62C492.2,381.84 494.17,381.87 496.15,381.73L495.96,380.41C494.16,367.48 494.25,349.16 496.22,325.46C495.71,324.34 495.21,323.22 494.73,322.08C492.09,322.49 489.44,322.86 486.79,323.19L487.12,327.28C487.99,338 489.23,353.35 487.54,366.65C486.91,371.6 485.87,376.26 484.28,380.3Z"/>
            <path d="M489.63,387.51C486.86,387.2 484.17,386.58 481.61,385.63C477.69,391.78 471.68,395.41 462.65,394.63C452.07,402.95 436.43,406.73 413.33,407.69C415.12,408.05 416.97,408.24 418.87,408.24L487.77,408.24C494.19,408.24 500.13,406.08 504.9,402.44C501.51,399.58 498.98,394.62 497.29,387.56C494.71,387.81 492.13,387.79 489.63,387.51Z"/>
            <path d="M502.48,383.58L502.54,383.9C504.01,391.53 506.25,396.35 509.25,398.36C513.55,393.38 516.15,386.91 516.15,379.86L516.15,330.26C511.52,332.04 507.02,333.24 502.65,333.86C502.26,333.91 501.88,333.89 501.53,333.8C500.19,353.3 500.29,368.56 501.83,379.59C502.03,381 502.24,382.33 502.48,383.58Z"/>
            <path d="M481.68,365.9C482.66,358.2 482.59,349.59 482.19,341.66C481,362.8 477.47,377.71 469.23,388.09C476.88,385.56 480.31,376.58 481.68,365.9Z"/>
            <path d="M531.77,332.88C533.71,330.08 534.56,326.03 534.32,320.73C531.91,322.31 529.52,323.75 527.17,325.06C525.46,326.01 523.76,326.89 522.08,327.69L522.08,337.79C526.04,337.38 529.01,336.06 531,333.84C531.17,333.52 531.4,333.24 531.68,333L531.77,332.88Z"/>
            <path d="M692.63,222.76L689.95,223.8L696.3,241.29L692.63,222.76Z" style="fill:white;"/>
            <path d="M686.52,218.8L689.33,217.71L619.53,154.19C619.68,155.6 619.76,157.04 619.76,158.47C619.76,161.94 619.28,165.42 618.11,168.33C623.92,174.16 632.26,181.11 643.14,189.18C654.72,197.78 669.18,207.66 686.52,218.8Z" style="fill:white;"/>
            <path d="M217.32,217.7L220.13,218.79C237.46,207.65 251.93,197.78 263.51,189.18C274.39,181.11 282.73,174.15 288.54,168.33C287.37,165.42 286.89,161.94 286.89,158.47C286.89,157.04 286.97,155.6 287.12,154.19L217.32,217.7Z" style="fill:white;"/>
            <path d="M216.69,223.8L214.01,222.76L210.34,241.3L216.69,223.8Z" style="fill:white;"/>
            <path d="M674.55,319.74L672.15,316.81C670.59,325.98 669.19,334.8 668.52,343.52L669.28,340.69C670.91,334.62 672.75,327.75 674.55,319.74Z" style="fill:white;"/>
            <path d="M652.13,275.75C657.25,286.24 664.17,296.94 672.67,307.93L673.55,309.06C671.66,296.86 668.48,285.13 664.01,273.87C658.83,260.83 651.92,248.4 643.27,236.59C642.88,237.07 642.44,237.57 641.96,238.07C642.32,250.4 645.87,262.91 652.13,275.75Z" style="fill:white;"/>
            <path d="M582.23,293.18C581.76,293.12 581.34,293.12 580.97,293.19C578.25,293.66 576.76,297.8 576.17,304.28C575.47,311.91 576.23,322.35 577.85,333.99C580.67,354.22 586.08,377.87 591.02,396.88C590.68,382.73 591.52,368.78 592.31,355.72C593.78,331.4 595.06,310.26 588.01,297.71C586.65,295.28 584.66,293.85 582.23,293.18Z" style="fill:white;"/>
            <path d="M233.1,309.06L233.98,307.93C242.48,296.94 249.4,286.24 254.52,275.75C260.78,262.9 264.32,250.39 264.7,238.07C264.22,237.57 263.78,237.07 263.39,236.59C254.74,248.4 247.83,260.83 242.65,273.87C238.18,285.13 234.99,296.86 233.1,309.06Z" style="fill:white;"/>
            <path d="M234.5,316.81L232.1,319.74C233.89,327.75 235.74,334.62 237.37,340.7L238.13,343.53C237.46,334.8 236.06,325.98 234.5,316.81Z" style="fill:white;"/>
            <path d="M325.68,293.19C325.31,293.13 324.89,293.12 324.42,293.18C321.99,293.85 320,295.28 318.64,297.71C311.59,310.25 312.87,331.4 314.34,355.72C315.13,368.78 315.97,382.73 315.63,396.88C320.57,377.87 325.98,354.22 328.8,333.99C330.42,322.35 331.18,311.91 330.48,304.28C329.88,297.8 328.4,293.66 325.68,293.19Z" style="fill:white;"/>
            <path d="M468.05,147.86C479.22,139.88 494.14,139.59 505.62,147.12C508.81,143.44 510.41,141.6 510.41,141.6C508.87,139.12 506.48,137.29 503.69,136.44C503.32,138.4 503.14,139.39 503.14,139.39C497.7,134.78 490.38,133.05 483.45,134.73C476.5,136.4 470.79,141.28 468.05,147.86Z"/>
            <path d="M463.27,173.46L443.38,173.46C444.06,178.43 448.31,182.13 453.33,182.13C458.33,182.13 462.58,178.43 463.27,173.46Z"/>
            <path d="M402.96,136.44C400.17,137.28 397.78,139.12 396.24,141.6C396.24,141.6 397.84,143.44 401.03,147.12C412.51,139.59 427.43,139.88 438.6,147.86C435.86,141.28 430.14,136.4 423.21,134.72C416.28,133.05 408.96,134.78 403.52,139.38C403.51,139.39 403.33,138.41 402.96,136.44Z"/>
            <path d="M419.27,25.97C400.35,23.74 383.97,34.58 379.26,52.22C376.26,50.09 373.73,47.33 371.88,44.14C369.69,40.36 368.43,35.96 368.43,31.26C368.43,24.16 371.31,17.74 375.95,13.09C380.6,8.44 387.02,5.57 394.12,5.57C400.59,5.57 406.5,7.95 411.01,11.89C415.14,15.49 418.1,20.4 419.27,25.97Z"/>
            <path d="M527.38,52.22C522.67,34.58 506.29,23.73 487.37,25.97C488.53,20.4 491.5,15.5 495.63,11.89C500.14,7.96 506.04,5.57 512.51,5.57C519.6,5.57 526.03,8.45 530.68,13.1C535.33,17.75 538.21,24.17 538.21,31.26C538.21,35.96 536.95,40.36 534.76,44.14C532.91,47.33 530.39,50.09 527.38,52.22Z"/>
        </g>
    </g>
</svg>
