<?xml version="1.0" encoding="UTF-8" standalone="no"?>
<!-- Created with Inkscape (http://www.inkscape.org/) -->

<svg
   version="1.1"
   id="svg1129"
   xml:space="preserve"
   width="1208.8567"
   height="146.50133"
   viewBox="0 0 1208.8567 146.50133"
   xmlns="http://www.w3.org/2000/svg"
   xmlns:svg="http://www.w3.org/2000/svg"><defs
     id="defs1133"><clipPath
       clipPathUnits="userSpaceOnUse"
       id="clipPath1145"><path
         d="M 0,1950.957 H 2670.441 V 0 H 0 Z"
         id="path1143" /></clipPath></defs><g
     id="g1135"
     transform="matrix(1.3333333,0,0,-1.3333333,-1175.8654,1053.5521)"><g
       id="g1139"><g
         id="g1141"
         clip-path="url(#clipPath1145)"><g
           id="g1147"
           transform="translate(915.6161,724.5377)"><path
             d="M 0,0 H 51.626 L 25.888,48.316 Z m 79.17,-21.523 c 10.686,-20.018 16.255,-18.364 18.965,-19.266 0.603,-0.151 0.753,-1.204 0.753,-1.204 H 60.957 c 0,0 0,1.053 0.603,1.204 1.807,0.603 6.623,-0.301 6.623,4.968 0,2.71 -1.355,7.224 -5.117,14.298 L 52.83,-2.408 H -1.206 L -11.44,-21.523 c -1.656,-3.011 -2.257,-5.72 -2.257,-7.826 0,-8.429 10.083,-10.686 12.342,-11.44 0.451,-0.151 0.451,-1.204 0.451,-1.204 h -32.813 c 0,0 0,1.053 0.602,1.204 2.71,0.902 9.784,1.807 18.966,19.266 l 45.305,84.89 h 2.709 z"
             style="fill:#000000;fill-opacity:1;fill-rule:nonzero;stroke:none"
             id="path1149" /></g><g
           id="g1151"
           transform="translate(1078.3069,734.0221)"><path
             d="m 0,0 h 10.988 c 22.879,0 34.468,12.792 34.468,25.737 0,12.644 -11.137,25.437 -33.413,25.738 H 5.569 C 2.711,51.174 0,49.369 0,33.413 Z m 0,-2.41 v -28.597 c 0,-19.266 9.484,-18.364 12.493,-19.266 0.452,-0.151 0.452,-1.204 0.452,-1.204 h -40.489 c 0,0 0,1.053 0.603,1.204 2.86,0.902 12.493,0 12.493,19.266 v 64.42 c 0,20.47 -9.633,18.363 -12.493,19.266 -0.603,0.151 -0.603,1.204 -0.603,1.204 h 43.198 c 30.254,0 45.305,-13.996 45.305,-28.146 0,-13.244 -13.395,-26.491 -40.037,-27.996 42.596,-9.332 31.007,-47.112 48.617,-47.112 3.612,0 7.676,3.011 8.882,9.183 0,0.902 0.6,0.601 0.6,0.601 l 1.355,-3.461 c -3.611,-8.731 -10.988,-9.935 -14.448,-9.935 -38.532,0 -20.922,50.573 -62.314,50.573 z"
             style="fill:#000000;fill-opacity:1;fill-rule:nonzero;stroke:none"
             id="path1153" /></g><g
           id="g1155"
           transform="translate(1224.7487,724.5377)"><path
             d="M 0,0 H 51.626 L 25.888,48.316 Z m 79.17,-21.523 c 10.685,-20.018 16.254,-18.364 18.964,-19.266 0.603,-0.151 0.753,-1.204 0.753,-1.204 h -37.93 c 0,0 0,1.053 0.603,1.204 1.807,0.603 6.623,-0.301 6.623,4.968 0,2.71 -1.355,7.224 -5.117,14.298 L 52.83,-2.408 H -1.204 L -11.44,-21.523 c -1.656,-3.011 -2.257,-5.72 -2.257,-7.826 0,-8.429 10.083,-10.686 12.342,-11.44 0.451,-0.151 0.451,-1.204 0.451,-1.204 h -32.813 c 0,0 0,1.053 0.603,1.204 2.71,0.902 9.784,1.807 18.965,19.266 l 45.305,84.89 h 2.709 z"
             style="fill:#000000;fill-opacity:1;fill-rule:nonzero;stroke:none"
             id="path1157" /></g><g
           id="g1159"
           transform="translate(1463.152,702.2631)"><path
             d="m 0,0 1.355,-1.204 c -7.977,-11.289 -20.621,-20.771 -45.756,-20.771 -43.349,0 -65.173,27.544 -65.173,54.938 0,27.544 21.824,54.938 65.173,54.938 18.663,0 31.006,-7.527 39.133,-18.062 1.355,-1.656 1.807,-3.463 1.807,-5.117 0,-4.215 -3.762,-7.527 -7.977,-7.527 -2.108,0 -4.214,0.754 -6.172,2.709 -8.728,8.58 -12.644,24.534 -34.767,24.534 -29.05,0 -42.297,-19.867 -42.297,-42.144 0,-28.446 21.374,-60.808 58.401,-60.808 17.007,0 29.5,8.429 36.273,18.514"
             style="fill:#000000;fill-opacity:1;fill-rule:nonzero;stroke:none"
             id="path1161" /></g><g
           id="g1163"
           transform="translate(1516.5718,772.1018)"><path
             d="m 0,0 v -66.83 c 0,-17.61 13.998,-20.621 17.009,-21.523 0.452,-0.151 0.452,-1.204 0.452,-1.204 h -32.965 c 0,0 0,1.053 0.603,1.204 2.86,0.902 12.493,3.913 12.493,21.374 V 1.355 c -0.452,14.299 -9.783,12.493 -12.493,13.395 -0.603,0.151 -0.603,1.053 -0.603,1.053 H 4.215 l 83.987,-85.491 v 62.915 c 0,17.459 -13.998,20.47 -16.858,21.372 -0.601,0.151 -0.601,1.204 -0.601,1.204 h 32.963 c 0,0 0,-1.053 -0.603,-1.204 C 100.243,13.697 90.61,10.686 90.61,-6.773 v -82.784 h -2.408 z"
             style="fill:#000000;fill-opacity:1;fill-rule:nonzero;stroke:none"
             id="path1165" /></g><g
           id="g1167"
           transform="translate(1689.6536,724.5377)"><path
             d="M 0,0 H 51.626 L 25.888,48.316 Z m 79.17,-21.523 c 10.686,-20.018 16.255,-18.364 18.965,-19.266 0.603,-0.151 0.753,-1.204 0.753,-1.204 H 60.957 c 0,0 0,1.053 0.603,1.204 1.807,0.603 6.622,-0.301 6.622,4.968 0,2.71 -1.354,7.224 -5.116,14.298 L 52.83,-2.408 H -1.204 L -11.44,-21.523 c -1.656,-3.011 -2.257,-5.72 -2.257,-7.826 0,-8.429 10.083,-10.686 12.342,-11.44 0.45,-0.151 0.45,-1.204 0.45,-1.204 h -32.812 c 0,0 0,1.053 0.603,1.204 2.71,0.902 9.784,1.807 18.965,19.266 l 45.305,84.89 h 2.709 z"
             style="fill:#000000;fill-opacity:1;fill-rule:nonzero;stroke:none"
             id="path1169" /></g><g
           id="g1171"
           transform="translate(1409.2814,1218.4506)" /></g></g></g></svg>
